<?xml version="1.0" encoding="utf-8"?>
<!-- Generator: Adobe Illustrator 28.1.0, SVG Export Plug-In . SVG Version: 6.00 Build 0)  -->
<svg version="1.1" id="Layer_1" xmlns="http://www.w3.org/2000/svg" xmlns:xlink="http://www.w3.org/1999/xlink" x="0px" y="0px"
	 viewBox="0 0 800 800" style="enable-background:new 0 0 800 800;" xml:space="preserve">
<style type="text/css">
	.st0{fill:none;stroke:#52796F;stroke-width:50;stroke-linecap:round;stroke-miterlimit:133.3333;}
	.st1{fill:#FFFFFF;stroke:#52796F;stroke-width:50;stroke-linecap:round;stroke-miterlimit:133.3333;}
</style>
<path class="st0" d="M66.7,400c0,157.1,0,235.7,48.8,284.5c48.8,48.8,127.4,48.8,284.5,48.8c157.1,0,235.7,0,284.5-48.8
	c48.8-48.8,48.8-127.4,48.8-284.5c0-157.1,0-235.7-48.8-284.5C635.7,66.7,557.1,66.7,400,66.7c-157.1,0-235.7,0-284.5,48.8
	c-32.5,32.5-43.3,78.1-47,151.2"/>
<path class="st1" d="M484,483.3l-36.6,95.4c-10.6,27.7-49.4,28.6-57.7,1.3l-35.2-115.9c-2.7-9-9.7-15.9-18.7-18.7l-115.9-35.2
	c-27.2-8.3-26.3-47.1,1.3-57.7l305.5-117.1c24.5-9.4,47.1,13.2,37.7,37.7l-32.2,84.1"/>
</svg>
